<svg xmlns="http://www.w3.org/2000/svg" xmlns:xlink="http://www.w3.org/1999/xlink" xmlns:inkscape="http://www.inkscape.org/namespaces/inkscape" version="1.1" width="750" height="187.5" viewBox="0 0 750 187.5">
<defs>
<clipPath id="clip_1">
<path transform="matrix(.24,0,0,.24,0,0)" d="M0 0H3125V781.25H0Z" clip-rule="evenodd"/>
</clipPath>
<clipPath id="clip_2">
<path transform="matrix(.24,0,0,.24,0,0)" d="M0 0H3125V781.25H0Z" clip-rule="evenodd"/>
</clipPath>
<clipPath id="clip_3">
<path transform="matrix(.24,0,0,.24,0,0)" d="M0 0H3125V781.25H0Z" clip-rule="evenodd"/>
</clipPath>
<clipPath id="clip_4">
<path transform="matrix(.24,0,0,.24,0,30)" d="M0 0H3107V530H0Z" clip-rule="evenodd"/>
</clipPath>
<clipPath id="clip_5">
<path transform="matrix(.24,0,0,.24,0,30.24)" d="M0 0H1826V529H0Z" clip-rule="evenodd"/>
</clipPath>
<path id="font_6_292" d="M.07714844 0V.72753909H.23876953L.39892579 .30810548C.40315757 .2960612 .40820313 .28068034 .4140625 .2619629 .41992188 .24324544 .425944 .22314453 .4321289 .20166016 .4383138 .18017578 .44425456 .15917969 .44995118 .13867188 .4556478 .11816406 .46044923 .0999349 .46435548 .083984378H.4404297C.44466148 .09928385 .44954429 .11710612 .45507813 .13745117 .46061198 .15779622 .46647135 .17871094 .47265626 .20019531 .47884117 .22167969 .48486329 .24194336 .49072267 .26098634 .49658204 .2800293 .50179037 .2957357 .50634768 .30810548L.6635742 .72753909H.8256836V0H.7158203V.39257813C.7158203 .4078776 .7159831 .42578126 .7163086 .44628907 .7166341 .46679688 .7171224 .488444 .71777346 .51123049 .7184245 .5340169 .71899417 .55704757 .7194824 .58032229 .7199707 .603597 .7203776 .62597659 .7207031 .64746096H.73046877C.7233073 .6233724 .7159017 .59903976 .70825198 .5744629 .70060226 .54988607 .69311526 .52612307 .685791 .5031738 .6784668 .4802246 .6715495 .45922853 .66503909 .44018556 .6585286 .42114259 .6529948 .40527345 .6484375 .39257813L.49853517 0H.40429688L.2529297 .39257813C.24804688 .4049479 .24243164 .42049156 .23608399 .43920899 .22973633 .45792643 .22290039 .47867839 .21557617 .50146487 .20825196 .5242513 .20060222 .5480957 .19262696 .57299807 .18465169 .5979004 .17675781 .6227214 .16894531 .64746096H.18066406C.18098958 .6272786 .18139649 .60579428 .18188477 .5830078 .18237305 .5602214 .18286133 .53727218 .18334961 .51416018 .18383789 .4910482 .18432617 .46899415 .18481446 .44799806 .18530274 .42700196 .18554688 .40852867 .18554688 .39257813V0H.07714844Z"/>
<path id="font_6_614" d="M.30126954-.011230469C.24788411-.011230469 .20198567 .00032552085 .16357422 .0234375 .12516277 .04654948 .09562174 .078938808 .07495117 .12060547 .054280599 .16227214 .043945314 .2109375 .043945314 .26660157 .043945314 .3216146 .05419922 .37019859 .07470703 .41235353 .095214847 .45450846 .124186199 .48746745 .1616211 .51123049 .19905599 .53499349 .24267578 .546875 .29248048 .546875 .32503257 .546875 .35587565 .5415039 .38500978 .5307617 .4141439 .52001956 .4400228 .5034993 .46264649 .48120118 .48527018 .45890299 .50309249 .43058268 .5161133 .39624024 .5291341 .3618978 .53564456 .3211263 .53564456 .27392579V.23779297H.10058594V.3178711H.48046876L.43164063 .2919922C.43164063 .32486979 .42635093 .35392253 .41577149 .3791504 .40519206 .40437828 .38956706 .42399089 .36889649 .43798829 .34822593 .4519857 .32291667 .45898438 .29296876 .45898438 .26302085 .45898438 .23738607 .4518229 .21606446 .4375 .19474285 .4231771 .17838542 .40413413 .16699219 .3803711 .15559896 .35660807 .14990235 .33007813 .14990235 .30078126V.24853516C.14990235 .21240235 .15616863 .18147786 .16870117 .15576172 .18123372 .13004558 .19897461 .110432948 .22192383 .09692383 .24487305 .08341471 .27164714 .076660159 .3022461 .076660159 .3227539 .076660159 .3413086 .07967123 .35791017 .08569336 .37451173 .09171549 .38867188 .10058594 .40039063 .11230469 .41210938 .12402344 .42089845 .13834636 .4267578 .15527344L.52734377 .13671875C.51920577 .107421878 .50472006 .08162435 .48388673 .059326173 .46305339 .037027997 .4370931 .01969401 .40600587 .0073242189 .3749186-.0050455729 .3400065-.011230469 .30126954-.011230469Z"/>
<path id="font_6_852" d="M.068847659 0V.5390625H.171875V.45263673H.17675781C.18684896 .4819336 .20385742 .5048828 .2277832 .5214844 .25170899 .53808596 .27978517 .5463867 .31201173 .5463867 .3191732 .5463867 .3269043 .5461426 .33520509 .5456543 .34350587 .545166 .3504232 .5445964 .35595704 .5439453V.4428711C.35205079 .44384767 .34464518 .44498698 .33374024 .44628907 .3228353 .44759117 .31152345 .4482422 .2998047 .4482422 .2763672 .4482422 .25520835 .44319663 .23632813 .43310548 .21744792 .4230143 .20263672 .4087728 .19189453 .39038087 .18115235 .37198893 .17578125 .3504232 .17578125 .3256836V0H.068847659Z"/>
<path id="font_6_586" d="M.29638673-.011230469C.24593099-.011230469 .20174153 .00040690104 .16381836 .02368164 .12589519 .04695638 .09643555 .07950846 .07543945 .12133789 .05444336 .16316732 .043945314 .2117513 .043945314 .26708985 .043945314 .32307945 .05444336 .3720703 .07543945 .4140625 .09643555 .4560547 .12589519 .48868815 .16381836 .5119629 .20174153 .5352376 .24593099 .546875 .29638673 .546875 .32535807 .546875 .3523763 .5430501 .3774414 .5354004 .4025065 .5277507 .42504884 .5166829 .44506837 .50219729 .4650879 .48771159 .4818522 .47013346 .49536134 .4494629 .5088704 .42879234 .5185547 .40559898 .52441409 .3798828L.42236329 .36083985C.41910807 .37516276 .41381837 .3881836 .40649415 .39990235 .39916993 .4116211 .3902181 .42171226 .37963868 .43017579 .36905924 .4386393 .3568522 .44514976 .34301759 .44970704 .32918296 .4542643 .31396485 .45654298 .29736329 .45654298 .26513673 .45654298 .23828125 .4481608 .21679688 .43139649 .1953125 .41463218 .17919922 .39200846 .16845703 .3635254 .15771485 .33504234 .15234375 .30289714 .15234375 .26708985 .15234375 .2319336 .15771485 .20019531 .16845703 .171875 .17919922 .14355469 .19523113 .12101237 .21655274 .10424805 .23787435 .08748373 .2648112 .07910156 .29736329 .07910156 .31429038 .07910156 .3297526 .081461589 .34375 .08618164 .3577474 .090901698 .3700358 .09757487 .38061524 .10620117 .39119468 .11482748 .40014649 .12524414 .4074707 .13745117 .41479493 .1496582 .4202474 .16308594 .42382813 .17773438L.5253906 .15917969C.51985678 .1328125 .5102539 .10921224 .49658204 .088378909 .48291017 .06754557 .46606446 .049641927 .44604493 .03466797 .4260254 .01969401 .4034017 .008300781 .37817384 .00048828127 .35294596-.0073242189 .3256836-.011230469 .29638673-.011230469Z"/>
<path id="font_6_507" d="M.22265625-.011230469C.18815105-.011230469 .1570638-.004964193 .12939453 .0075683596 .10172526 .020100913 .079833988 .03857422 .0637207 .06298828 .047607423 .087402347 .03955078 .11735026 .03955078 .15283203 .03955078 .18343099 .045491537 .20857747 .057373048 .22827149 .069254558 .2479655 .085123699 .26350913 .10498047 .27490235 .12483724 .28629557 .1472168 .29492188 .17211914 .30078126 .19702149 .30664063 .22249349 .31103517 .24853516 .31396485 .28076173 .3178711 .30672203 .3211263 .32641603 .32373048 .34611003 .32633464 .3605957 .33040367 .36987306 .3359375 .3791504 .34147135 .38378907 .35058595 .38378907 .36328126V.36621095C.38378907 .38606773 .3798828 .40291343 .3720703 .41674806 .3642578 .43058268 .35253907 .4412435 .33691407 .44873048 .32128907 .45621745 .30208335 .45996095 .27929688 .45996095 .2561849 .45996095 .23616536 .45629884 .21923828 .4489746 .2023112 .4416504 .18855794 .4322103 .17797852 .4206543 .1673991 .4090983 .15999349 .3968099 .15576172 .38378907L.0546875 .4038086C.06477865 .4366862 .08081055 .46362306 .1027832 .48461915 .12475586 .50561526 .1508789 .52124026 .18115235 .53149417 .21142578 .54174807 .24381511 .546875 .2783203 .546875 .30240885 .546875 .3269043 .5439453 .35180665 .53808596 .37670899 .53222659 .3996582 .52229818 .4206543 .5083008 .4416504 .49430339 .4584961 .4752604 .4711914 .45117188 .48388673 .42708335 .49023438 .3968099 .49023438 .36035157V0H.38671876V.07421875H.38232423C.37516276 .060221357 .3647461 .04671224 .35107423 .033691408 .33740235 .020670573 .31998698 .009928386 .29882813 .0014648438 .27766929-.0069986979 .25227867-.011230469 .22265625-.011230469M.24609375 .07421875C.27571617 .07421875 .30078126 .07991537 .32128907 .091308597 .34179688 .10270182 .35742188 .11767578 .36816407 .13623047 .37890626 .15478516 .38427735 .17464192 .38427735 .19580078V.26367188C.38069663 .26009117 .3736979 .25683595 .36328126 .25390626 .3528646 .25097657 .34098307 .24829102 .32763673 .24584961 .31429038 .2434082 .30110679 .24129232 .28808595 .23950196 .2750651 .2377116 .26367188 .23616536 .25390626 .23486328 .234375 .23225911 .21622722 .22794597 .19946289 .22192383 .18269857 .21590169 .16935222 .20727539 .15942383 .19604492 .14949544 .18481446 .14453125 .16992188 .14453125 .15136719 .14453125 .13444011 .1488444 .120279949 .1574707 .10888672 .166097 .09749349 .17805989 .08886719 .19335938 .08300781 .20865886 .07714844 .22623699 .07421875 .24609375 .07421875Z"/>
<path id="font_6_597" d="M.2709961-.0107421879C.22672527-.0107421879 .1875 .00056966146 .15332031 .02319336 .119140628 .04581706 .09236654 .07796224 .07299805 .119628909 .05362956 .16129558 .043945314 .2109375 .043945314 .2685547 .043945314 .3264974 .053710939 .3762207 .07324219 .4177246 .09277344 .45922853 .11971029 .49112956 .15405274 .51342776 .18839519 .5357259 .2273763 .546875 .2709961 .546875 .3022461 .546875 .3282064 .54174807 .34887696 .53149417 .36954753 .52124026 .38614909 .50895187 .39868165 .4946289 .4112142 .480306 .4210612 .46663413 .42822267 .45361329H.43359376V.72753909H.54003909V0H.43603517V.083984378H.42871095C.42154948 .0703125 .41145835 .056233724 .3984375 .041748048 .38541667 .02726237 .36865235 .014892578 .34814454 .004638672 .32763673-.0056152346 .30192057-.0107421879 .2709961-.0107421879M.2939453 .080078128C.32421876 .080078128 .3499349 .08805338 .37109376 .104003909 .3922526 .11995443 .40836589 .14208985 .4194336 .17041016 .4305013 .19873047 .43603517 .23160808 .43603517 .26904298 .43603517 .30680339 .43058268 .3395996 .41967774 .36743165 .4087728 .39526368 .39274089 .4169922 .37158204 .4326172 .3504232 .4482422 .32454429 .4560547 .2939453 .4560547 .26334635 .4560547 .23754883 .44807945 .21655274 .4321289 .19555664 .41617839 .17960613 .39420573 .16870117 .36621095 .15779622 .33821617 .15234375 .3058268 .15234375 .26904298 .15234375 .23258464 .15779622 .20011394 .16870117 .17163086 .17960613 .14314778 .1957194 .12076823 .21704102 .10449219 .23836263 .08821615 .2639974 .080078128 .2939453 .080078128Z"/>
<path id="font_6_790" d="M.296875-.011230469C.24609375-.011230469 .20174153 .00040690104 .16381836 .02368164 .12589519 .04695638 .09643555 .07950846 .07543945 .12133789 .05444336 .16316732 .043945314 .2117513 .043945314 .26708985 .043945314 .32307945 .05444336 .3720703 .07543945 .4140625 .09643555 .4560547 .12589519 .48868815 .16381836 .5119629 .20174153 .5352376 .24609375 .546875 .296875 .546875 .34798179 .546875 .39249674 .5352376 .43041993 .5119629 .4683431 .48868815 .49780274 .4560547 .5187988 .4140625 .5397949 .3720703 .55029299 .32307945 .55029299 .26708985 .55029299 .2117513 .5397949 .16316732 .5187988 .12133789 .49780274 .07950846 .4683431 .04695638 .43041993 .02368164 .39249674 .00040690104 .34798179-.011230469 .296875-.011230469M.296875 .07910156C.32910157 .07910156 .35603843 .08748373 .37768556 .10424805 .39933268 .12101237 .41552735 .14363607 .42626954 .17211914 .43701173 .20060222 .4423828 .23225911 .4423828 .26708985 .4423828 .30257163 .43701173 .33455406 .42626954 .3630371 .41552735 .39152018 .39933268 .41422526 .37768556 .43115235 .35603843 .44807945 .32910157 .45654298 .296875 .45654298 .26464845 .45654298 .23787435 .44807945 .21655274 .43115235 .19523113 .41422526 .17919922 .39152018 .16845703 .3630371 .15771485 .33455406 .15234375 .30257163 .15234375 .26708985 .15234375 .23225911 .15771485 .20060222 .16845703 .17211914 .17919922 .14363607 .19523113 .12101237 .21655274 .10424805 .23787435 .08748373 .26464845 .07910156 .296875 .07910156Z"/>
<path id="font_7_292" d="M.06298828 0V.72753909H.29003907L.40820313 .39257813C.41308595 .37695313 .41878257 .35701499 .42529298 .33276368 .43180339 .30851237 .43839518 .2825521 .44506837 .2548828 .45174156 .22721355 .45792643 .20043946 .46362306 .17456055 .46931968 .14868164 .4741211 .12630208 .47802735 .107421878H.44677735C.4506836 .12597656 .45548503 .14811199 .46118165 .17382813 .46687828 .19954427 .47306315 .22631836 .47973634 .2541504 .48640953 .28198243 .49291993 .30810548 .49926759 .33251954 .50561526 .3569336 .51139327 .37695313 .51660159 .39257813L.6328125 .72753909H.86035159V0H.7109375V.34375C.7109375 .35970054 .71118167 .37939454 .7116699 .40283204 .7121582 .42626954 .71280929 .4514974 .71362307 .47851563 .7144368 .5055339 .71516928 .5327962 .7158203 .56030276 .7164714 .58780929 .71695968 .61376956 .71728518 .6381836H.7285156C.7220052 .6114909 .7149251 .5839844 .7072754 .55566409 .6996257 .52734377 .6919759 .49975587 .6843262 .4729004 .67667648 .44604493 .66951498 .4214681 .6628418 .39916993 .65616866 .37687174 .6503906 .35839845 .6455078 .34375L.52441409 0H.39941407L.27685548 .34375C.27164714 .35839845 .2657064 .37679038 .2590332 .39892579 .25236003 .4210612 .24511719 .44547526 .23730469 .47216798 .22949219 .4988607 .22167969 .5263672 .21386719 .5546875 .20605469 .5830078 .1985677 .61083987 .19140625 .6381836H.20507813C.20540364 .6147461 .20589192 .58935549 .20654297 .5620117 .20719402 .53466799 .20784505 .5073242 .2084961 .47998048 .20914714 .45263673 .20979817 .4271647 .21044922 .40356446 .21110027 .3799642 .21142578 .36002604 .21142578 .34375V0H.06298828Z"/>
<path id="font_7_790" d="M.30322267-.0107421879C.24886067-.0107421879 .20174153 .0008951823 .16186524 .024169922 .12198893 .04744466 .09122721 .07999674 .06958008 .12182617 .04793294 .1636556 .037109376 .21223958 .037109376 .26757813 .037109376 .32356773 .04793294 .3724772 .06958008 .41430665 .09122721 .45613609 .12198893 .48868815 .16186524 .5119629 .20174153 .5352376 .24886067 .546875 .30322267 .546875 .35725913 .546875 .40421549 .5352376 .4440918 .5119629 .4839681 .48868815 .5147298 .45613609 .53637698 .41430665 .5580241 .3724772 .56884768 .32356773 .56884768 .26757813 .56884768 .21223958 .5580241 .1636556 .53637698 .12182617 .5147298 .07999674 .4839681 .04744466 .4440918 .024169922 .40421549 .0008951823 .35725913-.0107421879 .30322267-.0107421879M.30322267 .10449219C.32861329 .10449219 .35001628 .11149088 .36743165 .12548828 .38484703 .13948567 .39811198 .15877278 .40722657 .18334961 .41634117 .20792644 .42089845 .23616536 .42089845 .2680664 .42089845 .30029298 .41634117 .32861329 .40722657 .35302735 .39811198 .3774414 .38484703 .39664714 .36743165 .41064454 .35001628 .42464195 .32861329 .43164063 .30322267 .43164063 .27783204 .43164063 .25634767 .42464195 .23876953 .41064454 .2211914 .39664714 .20792644 .3774414 .19897461 .35302735 .19002278 .32861329 .18554688 .30029298 .18554688 .2680664 .18554688 .23616536 .19002278 .20792644 .19897461 .18334961 .20792644 .15877278 .22111003 .13948567 .23852539 .12548828 .25594078 .11149088 .2775065 .10449219 .30322267 .10449219Z"/>
<path id="font_7_888" d="M.33642579 .5390625V.4272461H.009277344V.5390625H.33642579M.087890628 .6713867H.23339844V.15966797C.23339844 .14241536 .23722331 .12980144 .24487305 .12182617 .2525228 .113850917 .26529948 .10986328 .28320313 .10986328 .28971354 .10986328 .2980957 .110432948 .3083496 .111572269 .31860353 .112711589 .3264974 .11376953 .33203126 .114746097L.34814454 .00390625C.3334961 .00032552085 .31819663-.0021972657 .3022461-.0036621094 .28629557-.005126953 .27083335-.005859375 .25585938-.005859375 .20052083-.005859375 .1586914 .006917318 .1303711 .032470704 .10205078 .05802409 .087890628 .0953776 .087890628 .14453125V.6713867Z"/>
<path id="font_7_852" d="M.060058595 0V.5390625H.20117188V.44580079H.20605469C.21582031 .47867839 .23209636 .5034993 .2548828 .5202637 .27766929 .537028 .3046875 .54541018 .3359375 .54541018 .34375 .54541018 .35188804 .54508468 .36035157 .5444336 .3688151 .54378256 .3761393 .54280599 .38232423 .5415039V.41259767C.3761393 .41455079 .36694337 .41609703 .35473634 .41723634 .3425293 .41837565 .33072917 .4189453 .31933595 .4189453 .29785157 .4189453 .2784017 .41422526 .26098634 .40478517 .24357097 .39534507 .22998047 .3819987 .22021485 .3647461 .21044922 .3474935 .2055664 .32714845 .2055664 .30371095V0H.060058595Z"/>
</defs>
<g>


<g clip-path="url(#clip_3)">
<g>
<g clip-path="url(#clip_4)">
<g>
<g clip-path="url(#clip_5)">
<use data-text="M" xlink:href="#font_6_292" transform="matrix(104.78512,0,0,-104.78512,.000000000000027325973,131.08516)" fill="#ffffff"/>
<use data-text="e" xlink:href="#font_6_614" transform="matrix(104.78512,0,0,-104.78512,94.64935,131.08516)" fill="#ffffff"/>
<use data-text="r" xlink:href="#font_6_852" transform="matrix(104.78512,0,0,-104.78512,155.17378,131.08516)" fill="#ffffff"/>
<use data-text="c" xlink:href="#font_6_586" transform="matrix(104.78512,0,0,-104.78512,192.82878,131.08516)" fill="#ffffff"/>
<use data-text="a" xlink:href="#font_6_507" transform="matrix(104.78512,0,0,-104.78512,253.19977,131.08516)" fill="#ffffff"/>
<use data-text="d" xlink:href="#font_6_597" transform="matrix(104.78512,0,0,-104.78512,311.78004,131.08516)" fill="#ffffff"/>
<use data-text="o" xlink:href="#font_6_790" transform="matrix(104.78512,0,0,-104.78512,375.57884,131.08516)" fill="#ffffff"/>
</g>
</g>
<use data-text="M" xlink:href="#font_7_292" transform="matrix(104.788127,0,0,-104.788127,442.38438,131.4868)" fill="#b89759"/>
<use data-text="o" xlink:href="#font_7_790" transform="matrix(104.788127,0,0,-104.788127,539.13449,131.4868)" fill="#b89759"/>
<use data-text="t" xlink:href="#font_7_888" transform="matrix(104.788127,0,0,-104.788127,602.6283,131.4868)" fill="#b89759"/>
<use data-text="o" xlink:href="#font_7_790" transform="matrix(104.788127,0,0,-104.788127,640.07986,131.4868)" fill="#b89759"/>
<use data-text="r" xlink:href="#font_7_852" transform="matrix(104.788127,0,0,-104.788127,703.57369,131.4868)" fill="#b89759"/>
</g>
</g>
</g>
</g>
</svg>
